<?xml version="1.0" ?><!DOCTYPE svg  PUBLIC '-//W3C//DTD SVG 1.1//EN'  'http://www.w3.org/Graphics/SVG/1.1/DTD/svg11.dtd'><svg enable-background="new 0 0 24 24"  height="24px" id="Layer_1" version="1.1" viewBox="0 0 24 24" width="24px" xml:space="preserve" xmlns="http://www.w3.org/2000/svg" xmlns:xlink="http://www.w3.org/1999/xlink"><g><path d="M19.7,0.5H4.3c-2.1,0-3.8,1.7-3.8,3.8v15.4c0,2.1,1.7,3.8,3.8,3.8h15.4c2.1,0,3.8-1.7,3.8-3.8V4.3   C23.5,2.2,21.8,0.5,19.7,0.5z M8.5,4.8c1.1,0,2,0.9,2,2s-0.9,2-2,2c-1.1,0-2-0.9-2-2S7.4,4.8,8.5,4.8z M17.5,18.7   c0,0.3-0.2,0.5-0.5,0.5c0,0,0,0,0,0c-0.3,0-0.5-0.2-0.5-0.5c0-2.4,0-5.1,0-6.6c-1.3,1.2-2.8,1.8-4.3,1.8c0,0,0,0,0,0   c-2,0-3.7-1.1-4.7-1.9c-0.1,3.8,0,6.6,0,6.6c0,0.3-0.2,0.5-0.5,0.5c0,0,0,0,0,0c-0.3,0-0.5-0.2-0.5-0.5c0,0-0.1-3.5,0-7.8   c0-0.2,0.1-0.4,0.3-0.4c0.2-0.1,0.4,0,0.5,0.1c0,0,2.1,2.4,4.8,2.4c0,0,0,0,0,0c1.6,0,3.1-0.8,4.5-2.4c0.1-0.2,0.3-0.2,0.5-0.1   c0.2,0.1,0.3,0.3,0.3,0.5C17.5,10.9,17.5,15.1,17.5,18.7z M15.5,8.9c-1.1,0-2-0.9-2-2s0.9-2,2-2c1.1,0,2,0.9,2,2S16.6,8.9,15.5,8.9   z"/></g></svg>