<?xml version="1.0" ?><svg viewBox="0 0 32 32" xmlns="http://www.w3.org/2000/svg"><defs><style>.cls-1{fill:#0e6ae0;}.cls-2{fill:#0593ff;}</style></defs><title/><g data-name="24 Hours" id="_24_Hours"><path class="cls-1" d="M19,20a1,1,0,0,1-.71-.29l-3-3A1,1,0,0,1,15,16V11a1,1,0,0,1,2,0v4.59l2.71,2.7a1,1,0,0,1,0,1.42A1,1,0,0,1,19,20Z"/><path class="cls-1" d="M16,8a1,1,0,0,1-1-1V3a1,1,0,0,1,2,0V7A1,1,0,0,1,16,8Z"/><path class="cls-1" d="M7,17H3a1,1,0,0,1,0-2H7a1,1,0,0,1,0,2Z"/><path class="cls-1" d="M6.81,26.19a1,1,0,0,1-.71-.29,1,1,0,0,1,0-1.41l2.83-2.83a1,1,0,0,1,1.41,1.41L7.51,25.9A1,1,0,0,1,6.81,26.19Z"/><path class="cls-1" d="M16,30a1,1,0,0,1-1-1V25a1,1,0,0,1,2,0v4A1,1,0,0,1,16,30Z"/><path class="cls-1" d="M25.19,26.19a1,1,0,0,1-.7-.29l-2.83-2.83a1,1,0,0,1,1.41-1.41l2.83,2.83a1,1,0,0,1,0,1.41A1,1,0,0,1,25.19,26.19Z"/><path class="cls-1" d="M29,17H25a1,1,0,0,1,0-2h4a1,1,0,0,1,0,2Z"/><path class="cls-1" d="M22.36,10.64a1,1,0,0,1-.7-.3,1,1,0,0,1,0-1.41L24.49,6.1A1,1,0,1,1,25.9,7.51l-2.83,2.83A1,1,0,0,1,22.36,10.64Z"/><path class="cls-2" d="M16,2A13.94,13.94,0,0,0,6,6.23V5A1,1,0,0,0,4,5V9a1,1,0,0,0,1,1H9A1,1,0,0,0,9,8H7.08A12,12,0,1,1,4,16a12.2,12.2,0,0,1,.32-2.77,1,1,0,0,0-1.95-.46A14.54,14.54,0,0,0,2,16,14,14,0,1,0,16,2Z"/></g></svg>