<?xml version="1.0" ?><svg style="enable-background:new 0 0 48 48;" version="1.1" viewBox="0 0 48 48" xml:space="preserve" xmlns="http://www.w3.org/2000/svg" xmlns:xlink="http://www.w3.org/1999/xlink"><g id="Icons"><g><linearGradient gradientUnits="userSpaceOnUse" id="SVGID_1_" x1="24" x2="24" y1="35.08488" y2="9.71188"><stop offset="0.09694" style="stop-color:#FFD879"/><stop offset="0.15387" style="stop-color:#FCCB76"/><stop offset="0.25828" style="stop-color:#F5AA6C"/><stop offset="0.39756" style="stop-color:#E9755E"/><stop offset="0.44898" style="stop-color:#E45F58"/><stop offset="0.67857" style="stop-color:#D22A9C"/><stop offset="1" style="stop-color:#6968DF"/></linearGradient><path d="M30.37337,33.9599l-5.96166-8.79194c-0.19733-0.29102-0.62609-0.29102-0.82342,0    l-5.96166,8.79194c-0.27508,0.40568-0.90915,0.21098-0.90915-0.27917V14.31835c0-0.27473,0.22271-0.49744,0.49744-0.49744    h13.57016c0.27473,0,0.49744,0.22271,0.49744,0.49744v19.36238C31.28252,34.17088,30.64845,34.36558,30.37337,33.9599z" style="fill:url(#SVGID_1_);"/><path d="    M30.37337,33.9599l-5.96166-8.79194c-0.19733-0.29102-0.62609-0.29102-0.82342,0l-5.96166,8.79194    c-0.27508,0.40568-0.90915,0.21098-0.90915-0.27917V14.31835c0-0.27473,0.22271-0.49744,0.49744-0.49744h13.57016    c0.27473,0,0.49744,0.22271,0.49744,0.49744v19.36238C31.28252,34.17088,30.64845,34.36558,30.37337,33.9599z" style="fill:none;stroke:#303030;stroke-width:0.7;stroke-linecap:round;stroke-linejoin:round;stroke-miterlimit:10;"/><g><line style="fill:none;stroke:#303030;stroke-width:0.7;stroke-linecap:round;stroke-linejoin:round;stroke-miterlimit:10;" x1="19.16389" x2="24.19888" y1="16.12722" y2="16.12722"/><line style="fill:none;stroke:#303030;stroke-width:0.7;stroke-linecap:round;stroke-linejoin:round;stroke-miterlimit:10;" x1="25.54154" x2="26.5905" y1="16.12722" y2="16.12722"/></g><path d="    M30.37337,33.9599l-5.96166-8.79194c-0.19733-0.29102-0.62609-0.29102-0.82342,0l-5.96166,8.79194    c-0.27508,0.40568-0.90915,0.21098-0.90915-0.27917V14.31835c0-0.27473,0.22271-0.49744,0.49744-0.49744h13.57016    c0.27473,0,0.49744,0.22271,0.49744,0.49744v19.36238C31.28252,34.17088,30.64845,34.36558,30.37337,33.9599z" style="fill:none;stroke:#303030;stroke-width:0.7;stroke-linecap:round;stroke-linejoin:round;stroke-miterlimit:10;"/></g></g></svg>