<?xml version="1.0" encoding="utf-8"?><svg version="1.1" id="Layer_1" xmlns="http://www.w3.org/2000/svg" xmlns:xlink="http://www.w3.org/1999/xlink" x="0px" y="0px" viewBox="0 0 122.88 111.73" style="enable-background:new 0 0 122.88 111.73" xml:space="preserve"><style type="text/css">.st0{fill-rule:evenodd;clip-rule:evenodd;fill:#393939;} .st1{fill-rule:evenodd;clip-rule:evenodd;fill:#0079FE;}</style><g><path class="st0" d="M30.93,45.92c3.77,6.81,8.12,13.34,13.78,19.31c5.66,6,12.7,11.46,21.83,16.11c0.67,0.34,1.31,0.34,1.89,0.1 c0.88-0.34,1.75-1.04,2.63-1.92c0.67-0.68,1.52-1.75,2.39-2.93c3.5-4.62,7.85-10.34,13.98-7.48c0.13,0.07,0.24,0.13,0.37,0.2 l20.45,11.76c0.07,0.03,0.13,0.1,0.2,0.13c2.7,1.85,3.81,4.72,3.84,7.95c0,3.3-1.21,7.01-3,10.14c-2.36,4.14-5.83,6.87-9.84,8.69 c-3.81,1.75-8.05,2.7-12.13,3.3c-6.4,0.94-12.4,0.34-18.53-1.55c-6-1.85-12.03-4.92-18.63-9l-0.47-0.3c-3.03-1.89-6.3-3.91-9.5-6.3 c-11.76-8.86-23.72-21.67-31.5-35.75C2.15,46.56-1.42,33.79,0.53,21.63C1.61,14.96,4.48,8.89,9.46,4.88 c4.35-3.5,10.21-5.42,17.79-4.75c0.88,0.07,1.65,0.57,2.05,1.31l13.11,22.17c1.92,2.49,2.16,4.95,1.11,7.41 c-0.88,2.02-2.63,3.88-5.02,5.63c-0.71,0.61-1.55,1.21-2.43,1.85c-2.93,2.12-6.27,4.58-5.12,7.48L30.93,45.92L30.93,45.92 L30.93,45.92L30.93,45.92z"/><path class="st1" d="M70.93,1.67h29.54c2.94,0,5.35,2.41,5.35,5.35v5.7l17.05-10.25v32.35l-17.05-9.2v7.42 c0,2.94-2.41,5.35-5.35,5.35H70.93c-2.95,0-5.36-2.41-5.36-5.35V7.02C65.57,4.08,67.98,1.67,70.93,1.67L70.93,1.67L70.93,1.67z"/></g></svg>