<?xml version="1.0" ?><svg id="Layer_1" style="enable-background:new 0 0 64 64;" version="1.1" viewBox="0 0 64 64" xml:space="preserve" xmlns="http://www.w3.org/2000/svg" xmlns:xlink="http://www.w3.org/1999/xlink"><style type="text/css">
	.st0{fill:#57CEF3;}
	.st1{fill-rule:evenodd;clip-rule:evenodd;fill:#2D8CFF;}
	.st2{fill-rule:evenodd;clip-rule:evenodd;fill:#314A52;}
	.st3{fill:#FFFFFF;}
</style><g id="Zoom"><circle class="st0" cx="32" cy="32" r="30"/><path class="st1" d="M18.5,7.5C9.9,12.2,4,21.4,4,32c0,15.5,12.5,20,28,20c15.5,0,28-4.5,28-20h2c0,11.4-4,21.5-13,27.1   C44.1,62.2,38.2,64,32,64C14.3,64,0,49.7,0,32C0,20,6.7,9.5,16.5,4L18.5,7.5z"/><path class="st2" d="M16,4.3C23.3,0,32.1-1.1,40.3,1.1S55.5,8.7,59.7,16c4.2,7.3,5.4,16.1,3.2,24.3S55.3,55.5,48,59.7l-2-3.5   c6.4-3.7,11.1-9.8,13-17S60,24.4,56.2,18c-3.7-6.4-9.8-11.1-17-13S24.4,4,18,7.8L16,4.3z"/><path class="st3" d="M12,23c0-1.7,1.3-3,3-3h17c4.4,0,8,3.6,8,8v13c0,1.7-1.3,3-3,3H20c-4.4,0-8-3.6-8-8V23z M49.6,20.4l-6.4,6.4   c-0.8,0.8-1.2,1.8-1.2,2.8v4.7c0,1.1,0.4,2.1,1.2,2.8l6.4,6.4c0.3,0.3,0.6,0.4,1,0.4c0.8,0,1.4-0.6,1.4-1.4V21.4   c0-0.8-0.6-1.4-1.4-1.4C50.2,20,49.9,20.1,49.6,20.4z"/></g></svg>